HIERARCHY
ROOT Hips
{
  OFFSET 0 89.5177 0.535
  CHANNELS 6 Xposition Yposition Zposition Zrotation Xrotation Yrotation
  JOINT Spine
  {
    OFFSET 12.0259 -0.162855 1.69034e-005
    CHANNELS 3 Zrotation Xrotation Yrotation
    JOINT Spine1
    {
      OFFSET 15.3169 -0.0121922 0
      CHANNELS 3 Zrotation Xrotation Yrotation
      JOINT Spine2
      {
        OFFSET 15.3176 -0.0121908 0
        CHANNELS 3 Zrotation Xrotation Yrotation
        JOINT Neck
        {
          OFFSET 19.9142 1.56338 0
          CHANNELS 3 Zrotation Xrotation Yrotation
          JOINT Head
          {
            OFFSET 6.92651 0 0
            CHANNELS 3 Zrotation Xrotation Yrotation
            End Site
            {
              OFFSET 20.7666 0 0
            }
          }
          JOINT LeftShoulder
          {
            OFFSET -6.20654 0.708824 7.28219
            CHANNELS 3 Zrotation Xrotation Yrotation
            JOINT LeftArm
            {
              OFFSET 14.108 0 -1.52588e-005
              CHANNELS 3 Zrotation Xrotation Yrotation
              JOINT LeftForeArm
              {
                OFFSET 28.5802 0 0
                CHANNELS 3 Zrotation Xrotation Yrotation
                JOINT LeftHand
                {
                  OFFSET 27.092 0 0
                  CHANNELS 3 Zrotation Xrotation Yrotation
                  End Site
                  {
                    OFFSET 9.55928 -0.186424 0.145352
                  }
                }
              }
            }
          }
          JOINT RightShoulder
          {
            OFFSET -6.20654 0.708866 -7.28218
            CHANNELS 3 Zrotation Xrotation Yrotation
            JOINT RightArm
            {
              OFFSET 14.108 0 1.52588e-005
              CHANNELS 3 Zrotation Xrotation Yrotation
              JOINT RightForeArm
              {
                OFFSET 28.5802 0 0
                CHANNELS 3 Zrotation Xrotation Yrotation
                JOINT RightHand
                {
                  OFFSET 27.092 0 0
                  CHANNELS 3 Zrotation Xrotation Yrotation
                  End Site
                  {
                    OFFSET 9.55929 -0.186417 -0.145354
                  }
                }
              }
            }
          }
        }
      }
    }
  }
  JOINT LeftUpLeg
  {
    OFFSET 0.005 -0.535 8.837
    CHANNELS 3 Zrotation Xrotation Yrotation
    JOINT LeftLeg
    {
      OFFSET 39.9035 0 0
      CHANNELS 3 Zrotation Xrotation Yrotation
      JOINT LeftFoot
      {
        OFFSET 39.6689 0 0
        CHANNELS 3 Zrotation Xrotation Yrotation
        JOINT LeftToe
        {
          OFFSET 10.1624 13.6296 0
          CHANNELS 3 Zrotation Xrotation Yrotation
          End Site
          {
            OFFSET 8.38147 0 0
          }
        }
      }
    }
  }
  JOINT RightUpLeg
  {
    OFFSET 0.005 -0.535 -8.837
    CHANNELS 3 Zrotation Xrotation Yrotation
    JOINT RightLeg
    {
      OFFSET 39.9035 0 0
      CHANNELS 3 Zrotation Xrotation Yrotation
      JOINT RightFoot
      {
        OFFSET 39.6689 0 0
        CHANNELS 3 Zrotation Xrotation Yrotation
        JOINT RightToe
        {
          OFFSET 10.1624 13.6296 0
          CHANNELS 3 Zrotation Xrotation Yrotation
          End Site
          {
            OFFSET 8.38147 0 0
          }
        }
      }
    }
  }
}
MOTION
Frames:	6
Frame Time:	0.0333333
237.691 89.9511 -23.9714 22.1892 -82.5229 -62.6714 2.19331 -1.16985 -1.12305 4.36469 -2.38114 -2.20105 4.36469 -2.38114 -2.20106 -8.30828e-012 -9.0191e-006 -5.27751e-005 4.43074 -3.87373 -1.15396 -178.384 -13.1214 -82.916 14.6683 -55.0652 29.4595 -14.4809 -1.27222e-014 -7.95139e-016 -59.154 -30.5831 -52.3829 179.672 11.1766 91.6906 66.914 63.7349 -77.453 -6.68474 1.59028e-015 2.38542e-015 -49.4152 23.1946 46.692 4.95687 2.5759 176.626 -13.4084 -1.59028e-015 -0 10.8418 7.50029 -15.7463 90 -3.42904e-015 3.97569e-016 10.7882 -1.64965 174.126 -5.84001 7.95139e-016 -1.98785e-016 11.9468 -4.85216 10.0756 90 -1.2424e-015 3.18055e-015 
237.675 89.9519 -23.9064 22.2031 -82.4547 -62.6241 2.20915 -1.17653 -1.12758 4.39616 -2.39496 -2.20953 4.39616 -2.39496 -2.20954 -8.30907e-012 -9.0191e-006 -5.27751e-005 4.32559 -3.92471 -1.17985 -178.389 -13.1101 -82.9301 14.7105 -55.1239 29.4299 -14.4529 -1.27222e-014 2.38542e-015 -59.1394 -30.5725 -52.3049 179.666 11.1761 91.7231 67.4737 63.8434 -77.8269 -6.64932 1.59028e-015 -0 -48.9982 23.2371 46.3537 4.95396 2.52171 176.58 -13.4326 0 -0 10.7934 7.4858 -15.7143 90 8.38623e-016 -0 10.745 -1.65553 174.08 -5.97368 0 -0 12.0068 -4.85164 10.0744 90 -2.5842e-015 -1.59028e-015 
237.664 89.9555 -23.8349 22.3111 -82.4045 -62.5 2.21521 -1.18174 -1.13161 4.4081 -2.40564 -2.21727 4.4081 -2.40564 -2.21728 -8.30669e-012 -9.0191e-006 -5.27751e-005 4.3687 -3.94429 -1.13599 -178.398 -13.1148 -82.9719 14.7122 -55.1589 29.4051 -14.4866 0 -0 -59.1534 -30.6209 -52.406 179.67 11.1651 91.7051 67.2514 63.8812 -77.4821 -6.7118 -1.59028e-015 3.18055e-015 -49.0263 23.4093 46.4815 4.92204 2.55346 176.567 -13.4713 7.95139e-016 1.98785e-016 10.8057 7.53785 -15.8279 90 -3.88251e-016 -1.98785e-016 10.7142 -1.61753 174.062 -6.03757 -1.19271e-015 -3.97569e-016 11.9319 -4.82422 10.016 90 -3.926e-015 -1.59028e-015 
237.658 89.9589 -23.7678 22.4789 -82.3824 -62.3166 2.21427 -1.18611 -1.13616 4.40606 -2.41453 -2.22622 4.40606 -2.41453 -2.22623 -8.30907e-012 -9.0191e-006 -5.27751e-005 4.49332 -3.93211 -1.04072 -178.4 -13.1156 -82.9816 14.5873 -55.1305 29.2464 -14.519 6.36111e-015 7.95139e-016 -58.9837 -30.7108 -52.2338 179.664 11.1738 91.7318 67.4405 63.9367 -77.5778 -6.72017 1.59028e-015 -7.95139e-016 -49.1219 23.3597 46.4909 4.87724 2.53985 176.551 -13.4793 -7.95139e-016 -0 10.7693 7.54327 -15.8395 90 -1.01877e-015 1.98785e-016 10.6696 -1.66369 174.043 -6.05825 -3.97569e-016 -2.98177e-016 11.9414 -4.83147 10.0313 90 -3.72721e-016 -0 
237.65 89.9643 -23.7039 22.678 -82.371 -62.1113 2.27354 -1.14828 -1.09925 4.52604 -2.33859 -2.15259 4.52604 -2.33859 -2.1526 -8.30669e-012 -9.0191e-006 -5.27751e-005 -149.182 31.2685 -93.7432 -178.28 -13.0361 -82.4168 13.9184 -55.7181 28.7306 -14.389 -3.18055e-015 -7.95139e-016 -59.109 -30.4663 -52.0828 179.658 11.653 91.6924 68.5236 64.2574 -78.8526 -6.7346 0 -7.95139e-016 -48.8885 23.1086 46.0382 4.83244 2.55903 176.543 -13.4705 1.59028e-015 -0 10.7092 7.55386 -15.8623 90 1.23619e-015 -1.98785e-016 10.6289 -1.67746 174.032 -6.05858 0 -1.49089e-016 11.9167 -4.82593 10.0194 90 -2.73329e-015 1.59028e-015 
237.643 89.9691 -23.6444 22.7283 -82.3951 -62.0365 2.27289 -1.14692 -1.10593 4.52463 -2.33612 -2.16601 4.52463 -2.33612 -2.16602 -8.30589e-012 -9.0191e-006 -5.27751e-005 -149.143 31.2518 -93.6832 -178.292 -13.0057 -82.4533 13.9169 -55.6703 28.6932 -14.4605 -3.18055e-015 -3.18055e-015 -59.1153 -30.525 -52.2098 179.658 11.6376 91.695 68.341 64.2677 -78.6411 -6.74556 0 -2.38542e-015 -49.0443 23.0303 46.1623 4.78302 2.61035 176.518 -13.4457 -7.95139e-016 1.98785e-016 10.6872 7.60906 -15.9829 90 1.38528e-015 -0 10.5411 -1.68956 173.994 -6.09833 -3.97569e-016 4.96962e-017 11.9166 -4.84622 10.0622 90 -1.39149e-015 -0 
